<?xml version="1.0" encoding="utf-8"?>
<!-- Generator: Adobe Illustrator 17.1.0, SVG Export Plug-In . SVG Version: 6.00 Build 0)  -->
<!DOCTYPE svg PUBLIC "-//W3C//DTD SVG 1.1//EN" "http://www.w3.org/Graphics/SVG/1.1/DTD/svg11.dtd">
<svg version="1.1" xmlns="http://www.w3.org/2000/svg" xmlns:xlink="http://www.w3.org/1999/xlink" x="0px" y="0px"
	 viewBox="0 0 1400 700" enable-background="new 0 0 1400 700" xml:space="preserve">
<g id="Layer_1">
</g>
<g id="Layer_2">
	<circle fill="#FFEB4D" cx="599.8" cy="352.8" r="13"/>
	<g>
		<path fill="#5426FF" d="M579,352.8c0,0,37.2-2.9,39-3.9s1.8-0.8,7-1c5.2-0.2,5.7-0.3,7-2c1.3-1.7,8.8-5.2,9.7-5.3
			c0.8-0.2,6.5-0.7,6.7-1.8c0.2-1.2,1.8-2.7,2.5-2.7c0.7,0,4.2-0.3,4.7-1.5s2.5-0.8,3,0s0.8,0.3,2.5-0.8c1.7-1.1,4.2-4.2,6.3-5.1
			c2.2-0.8,8-5,10.2-6.3c2.2-1.3,20.5-3.3,23.7-2.8c3.2,0.5,21.2,1,22.7,2.7c1.5,1.7,6.5,5.8,9.3,6.3c2.8,0.5,8.2,4.7,10.7,6.2
			s17.7,10.2,20.2,10.7s9.7,2.3,10.8,3c1.2,0.7,4.3,0,5.8,0.5s2.8,2.5,8.7,3.9c5.8,1.4,22.7,1.9,24.7,2.9s7,4.2,7,4.2v8.8H579V352.8
			z"/>
		<path fill="#6100D0" d="M812.8,367.3c-4.3-2.8-13.3-8.3-15.3-8.5s-6.3,0.8-9.5,0s-14.5-4.5-16.3-6s-4.8-0.5-7,0s-13,4.5-14.5,4.8
			s-7-2.3-10.8-4.8s-10.8-9-13.5-9.5s-5.3,0.8-6.5,0s-2-3.5-4.8-3.5s-14.5,0.8-14.8,1.8s-16.8,7-16.8,7s0.3,0.3-2.5,1.5
			s-12,2.8-14.5,2.8s-13.3-1.3-15.8,0.8s-15.3,6.3-18.3,6.8s-5.5,0.8-7.5,0s-2.5-2.8-4.5-3s-7,0-10,0.5s-20.3,6-23.5,8s-6.5,3-6.5,3
			h232.5V367.3z"/>
	</g>
	<path fill="#FFFFFF" d="M724.1,322.3c-0.6,0.4-9,1-9.9,0.8s-2.9-2.1-4.3-3s-0.4-0.9-0.8,0s-3.3,2.2-3.9,3.1s-11.3,0.6-12,0
		s1.4-1.9,1.5-2.6s-0.8-0.6-1.7-0.3c-0.8,0.4-3.3,2.5-4.1,2.5s-9.4,0-9.9-0.5s9.6-5.6,10.1-6.4s8.5-7,9.4-6.6s1.9,0.6,1.3,1.4
		s-0.5,2.9,0,2.1s1.4-2.1,2.4-2.3s2.3,0.3,3.1,0.8s2.6,0.8,2.4,0.1s0.6-1,1.8-0.4S724.1,322.3,724.1,322.3z"/>
	<g id="Reflection">
		<path fill="#5426FF" d="M579.2,370.3v13.2c0,0,37.2,2.7,39,3.6c1.8,0.9,1.8,0.8,7,0.9c5.2,0.2,5.7,0.3,7,1.8
			c1.3,1.5,8.8,4.8,9.7,4.9c0.8,0.2,6.5,0.6,6.7,1.7c0.2,1.1,1.8,2.5,2.5,2.5s4.2,0.3,4.7,1.4c0.5,1.1,2.5,0.8,3,0
			c0.5-0.8,0.8-0.3,2.5,0.7c1.7,1,4.2,3.9,6.3,4.7c2.2,0.8,8,4.6,10.2,5.8c2.2,1.2,20.5,3.1,23.7,2.6c3.2-0.5,21.2-0.9,22.7-2.5
			s6.5-5.4,9.3-5.8c2.8-0.5,8.2-4.3,10.7-5.7c2.5-1.4,17.7-9.4,20.2-9.8c2.5-0.5,9.7-2.1,10.8-2.8c1.2-0.6,4.3,0,5.8-0.5
			c1.5-0.5,2.8-2.3,8.7-3.6s22.7-1.8,24.7-2.7c2-0.9,7-3.8,7-3.8v-8.1h-242V370.3"/>
		<path fill="#6100D0" d="M812.9,370.1c-4.3,2.5-13.3,7.6-15.3,7.8s-6.3-0.7-9.5,0c-3.3,0.7-14.5,4.1-16.3,5.5s-4.8,0.5-7,0
			s-13-4.1-14.5-4.4c-1.5-0.2-7,2.1-10.8,4.4c-3.8,2.3-10.8,8.3-13.5,8.7c-2.8,0.5-5.3-0.7-6.5,0c-1.3,0.7-2,3.2-4.8,3.2
			s-14.5-0.7-14.8-1.6c-0.3-0.9-16.8-6.4-16.8-6.4s0.3-0.2-2.5-1.4s-12-2.5-14.5-2.5s-13.3,1.2-15.8-0.7s-15.3-5.8-18.3-6.2
			s-5.5-0.7-7.5,0c-2,0.7-2.5,2.5-4.5,2.8c-2,0.2-7,0-10-0.5c-3-0.5-20.3-5.5-23.5-7.4s-6.5-2.8-6.5-2.8h232.5V370.1z"/>
	</g>
</g>
</svg>
